<svg width="60" height="70" viewBox="0 0 30 35" fill="white" xmlns="http://www.w3.org/2000/svg"><path d="M28.7895 17.0305H28.3211C28.1238 17.0305 27.9346 16.9518 27.7951 16.8117C27.6556 16.6716 27.5773 16.4815 27.5773 16.2834C27.5773 16.0852 27.6556 15.8952 27.7951 15.7551C27.9346 15.615 28.1238 15.5363 28.3211 15.5363H28.7895C29.1106 15.5362 29.4185 15.4081 29.6455 15.1801C29.8725 14.952 30 14.6428 30 14.3203V10.9478C30 10.6254 29.8725 10.3161 29.6455 10.0881C29.4185 9.86005 29.1106 9.73191 28.7895 9.73186H28.3211C28.1239 9.73186 27.9347 9.65316 27.7952 9.51307C27.6557 9.37298 27.5774 9.18298 27.5774 8.98486V6.08265C27.5774 5.76015 27.4498 5.45086 27.2228 5.22282C26.9957 4.99478 26.6878 4.86667 26.3667 4.86667H25.9C25.7027 4.86667 25.5136 4.78797 25.3741 4.64788C25.2346 4.50779 25.1562 4.31779 25.1562 4.11967V3.64921C25.1562 3.32675 25.0286 3.01751 24.8016 2.78952C24.5745 2.56152 24.2666 2.43344 23.9456 2.43344H21.0543C20.9566 2.43344 20.8599 2.41411 20.7697 2.37656C20.6794 2.339 20.5974 2.28396 20.5284 2.21458C20.4593 2.14519 20.4045 2.06281 20.3671 1.97216C20.3298 1.88151 20.3106 1.78435 20.3106 1.68623V1.21598C20.3106 0.893482 20.183 0.584192 19.956 0.356152C19.7289 0.128111 19.421 0 19.0999 0H10.8999C10.5788 0 10.2708 0.128111 10.0438 0.356152C9.81675 0.584192 9.6892 0.893482 9.6892 1.21598V1.68623C9.68922 1.78435 9.67001 1.88151 9.63264 1.97216C9.59528 2.06281 9.5405 2.14519 9.47144 2.21458C9.40237 2.28396 9.32037 2.339 9.23013 2.37656C9.13988 2.41411 9.04315 2.43344 8.94546 2.43344H6.05443C5.73338 2.43344 5.42547 2.56152 5.19843 2.78952C4.97139 3.01751 4.84381 3.32675 4.84376 3.64921V4.11967C4.84376 4.31779 4.7654 4.50779 4.62592 4.64788C4.48644 4.78797 4.29727 4.86667 4.10002 4.86667H3.63266C3.47368 4.86667 3.31626 4.89812 3.16939 4.95923C3.02251 5.02034 2.88906 5.10992 2.77666 5.22283C2.66425 5.33575 2.57509 5.4698 2.51427 5.61733C2.45345 5.76486 2.42217 5.92297 2.42219 6.08265V8.98486C2.42214 9.183 2.34373 9.373 2.20422 9.51308C2.06471 9.65316 1.87552 9.73186 1.67825 9.73186H1.21047C1.05149 9.73186 0.894066 9.76331 0.747191 9.82442C0.600317 9.88553 0.466867 9.97511 0.354462 10.088C0.242057 10.2009 0.152899 10.335 0.0920801 10.4825C0.0312608 10.63 -2.76061e-05 10.7882 1.8282e-08 10.9478V14.3203C-2.76061e-05 14.48 0.0312608 14.6381 0.0920801 14.7856C0.152899 14.9332 0.242057 15.0672 0.354462 15.1801C0.466867 15.293 0.600317 15.3826 0.747191 15.4437C0.894066 15.5048 1.05149 15.5363 1.21047 15.5363H1.67867C1.87595 15.5363 2.06515 15.615 2.20464 15.7551C2.34414 15.8952 2.42251 16.0852 2.42251 16.2834C2.42251 16.4815 2.34414 16.6716 2.20464 16.8117C2.06515 16.9518 1.87595 17.0305 1.67867 17.0305H1.21047C1.0515 17.0305 0.89408 17.0619 0.747207 17.123C0.600334 17.1841 0.466882 17.2736 0.354475 17.3865C0.242067 17.4994 0.152907 17.6335 0.0920849 17.781C0.031263 17.9285 -2.76116e-05 18.0866 1.8282e-08 18.2463V19.1855C-2.76061e-05 19.3452 0.0312608 19.5033 0.0920801 19.6508C0.152899 19.7983 0.242057 19.9324 0.354462 20.0453C0.466867 20.1582 0.600317 20.2478 0.747191 20.3089C0.894066 20.37 1.05149 20.4015 1.21047 20.4015H1.67867C1.87594 20.4015 2.06513 20.4802 2.20464 20.6203C2.34415 20.7603 2.42256 20.9503 2.42261 21.1485V21.6187C2.42256 21.9411 2.55001 22.2504 2.77693 22.4784C3.00385 22.7064 3.31166 22.8346 3.63266 22.8347H4.0996C4.29685 22.8347 4.48602 22.9134 4.6255 23.0535C4.76498 23.1936 4.84334 23.3836 4.84334 23.5817V28.9174C4.84334 29.077 4.87465 29.2351 4.9355 29.3827C4.99634 29.5302 5.08552 29.6642 5.19795 29.7771C5.31037 29.89 5.44384 29.9795 5.59072 30.0406C5.73761 30.1017 5.89503 30.1332 6.05401 30.1331H6.52221C6.71948 30.1332 6.90866 30.2119 7.04813 30.352C7.1876 30.4922 7.26595 30.6822 7.26595 30.8803V31.3506C7.26595 31.6731 7.3935 31.9824 7.62055 32.2104C7.8476 32.4384 8.15554 32.5666 8.47663 32.5666H8.94504C9.14229 32.5666 9.33146 32.6453 9.47094 32.7854C9.61042 32.9254 9.68878 33.1154 9.68878 33.3136V33.784C9.68878 34.1065 9.81633 34.4158 10.0434 34.6439C10.2704 34.8719 10.5784 35 10.8995 35H19.0995C19.4206 35 19.7285 34.8719 19.9556 34.6439C20.1826 34.4158 20.3102 34.1065 20.3102 33.784V33.3136C20.3102 33.1154 20.3885 32.9254 20.528 32.7854C20.6675 32.6453 20.8567 32.5666 21.0539 32.5666H21.5223C21.8434 32.5666 22.1514 32.4384 22.3784 32.2104C22.6054 31.9824 22.733 31.6731 22.733 31.3506V30.8803C22.733 30.6822 22.8113 30.4922 22.9508 30.352C23.0903 30.2119 23.2795 30.1332 23.4767 30.1331H23.9451C24.1041 30.1332 24.2616 30.1017 24.4084 30.0406C24.5553 29.9795 24.6888 29.89 24.8012 29.7771C24.9136 29.6642 25.0028 29.5302 25.0637 29.3827C25.1245 29.2351 25.1558 29.077 25.1558 28.9174V23.5817C25.1558 23.3836 25.2342 23.1936 25.3737 23.0535C25.5131 22.9134 25.7023 22.8347 25.8996 22.8347H26.3663C26.6874 22.8347 26.9953 22.7066 27.2224 22.4786C27.4494 22.2505 27.577 21.9412 27.577 21.6187V21.1485C27.577 20.9504 27.6553 20.7604 27.7948 20.6203C27.9343 20.4802 28.1235 20.4015 28.3207 20.4015H28.7891C29.1102 20.4014 29.4181 20.2733 29.6451 20.0452C29.8721 19.8172 29.9996 19.508 29.9996 19.1855V18.2463C29.9996 17.9239 29.8721 17.6147 29.6452 17.3867C29.4183 17.1587 29.1105 17.0306 28.7895 17.0305ZM24.2226 18.7167C24.2226 18.9148 24.1442 19.1048 24.0047 19.2449C23.8653 19.385 23.6761 19.4637 23.4788 19.4637H23.0104C22.6893 19.4637 22.3814 19.5918 22.1543 19.8199C21.9273 20.0479 21.7997 20.3572 21.7997 20.6797V23.5834C21.7997 23.7815 21.7214 23.9715 21.5819 24.1116C21.4424 24.2517 21.2533 24.3304 21.056 24.3304H21.0543C20.8571 24.3304 20.6679 24.2517 20.5284 24.1116C20.3889 23.9715 20.3106 23.7815 20.3106 23.5834V23.1129C20.3106 22.7904 20.183 22.4811 19.956 22.2531C19.7289 22.0251 19.421 21.8969 19.0999 21.8969H18.6317C18.4345 21.8969 18.2453 21.8182 18.1058 21.6782C17.9663 21.5381 17.888 21.3481 17.888 21.15V20.6797C17.888 20.3572 17.7604 20.0479 17.5334 19.8199C17.3063 19.5918 16.9984 19.4637 16.6773 19.4637H13.3225C13.0014 19.4638 12.6935 19.5919 12.4665 19.8199C12.2395 20.048 12.112 20.3572 12.112 20.6797V21.15C12.112 21.3481 12.0337 21.5381 11.8942 21.6782C11.7547 21.8182 11.5655 21.8969 11.3683 21.8969H10.8999C10.5788 21.8969 10.2708 22.0251 10.0438 22.2531C9.81675 22.4811 9.6892 22.7904 9.6892 23.1129V23.5834C9.6892 23.7815 9.61084 23.9715 9.47136 24.1116C9.33188 24.2517 9.14271 24.3304 8.94546 24.3304H8.94378C8.74653 24.3304 8.55735 24.2517 8.41788 24.1116C8.2784 23.9715 8.20004 23.7815 8.20004 23.5834V20.6797C8.20004 20.3572 8.07249 20.0479 7.84544 19.8199C7.61839 19.5918 7.31045 19.4637 6.98936 19.4637H6.52116C6.32391 19.4637 6.13474 19.385 5.99526 19.2449C5.85578 19.1048 5.77742 18.9148 5.77742 18.7167V16.2833C5.77742 16.0852 5.85578 15.8952 5.99526 15.7551C6.13474 15.615 6.32391 15.5363 6.52116 15.5363H6.52263C6.71989 15.5363 6.90906 15.615 7.04854 15.7551C7.18801 15.8952 7.26637 16.0852 7.26637 16.2833V16.7523C7.26643 17.0747 7.39401 17.384 7.62105 17.612C7.84809 17.84 8.15599 17.968 8.47705 17.968H11.8356C12.1567 17.968 12.4646 17.84 12.6916 17.612C12.9187 17.384 13.0463 17.0747 13.0463 16.7523V16.2833C13.0463 16.0852 13.1247 15.8952 13.2642 15.7551C13.4036 15.615 13.5928 15.5363 13.7901 15.5363H16.2106C16.4078 15.5363 16.597 15.615 16.7365 15.7551C16.8759 15.8952 16.9543 16.0852 16.9543 16.2833V16.7523C16.9544 17.0747 17.0819 17.384 17.309 17.612C17.536 17.84 17.8439 17.968 18.165 17.968H21.5227C21.8438 17.968 22.1517 17.84 22.3787 17.612C22.6058 17.384 22.7334 17.0747 22.7334 16.7523V16.2833C22.7334 16.0852 22.8118 15.8952 22.9513 15.7551C23.0907 15.615 23.2799 15.5363 23.4772 15.5363H23.4788C23.6761 15.5363 23.8653 15.615 24.0047 15.7551C24.1442 15.8952 24.2226 16.0852 24.2226 16.2833V18.7167ZM13.0457 28.4477C13.0457 28.2496 13.124 28.0596 13.2635 27.9195C13.403 27.7794 13.5922 27.7007 13.7894 27.7007H16.2106C16.4078 27.7007 16.597 27.7794 16.7365 27.9195C16.8759 28.0596 16.9543 28.2496 16.9543 28.4477V28.4492C16.9543 28.6473 16.876 28.8374 16.7365 28.9775C16.597 29.1176 16.4078 29.1964 16.2106 29.1964H13.7894C13.6916 29.1964 13.5948 29.177 13.5045 29.1393C13.4141 29.1017 13.3321 29.0465 13.263 28.977C13.1939 28.9074 13.1392 28.8249 13.1019 28.7341C13.0646 28.6433 13.0455 28.546 13.0457 28.4477ZM13.0457 23.5828V23.5811C13.0457 23.3829 13.124 23.1929 13.2635 23.0529C13.403 22.9128 13.5922 22.8341 13.7894 22.8341H16.2106C16.4078 22.8341 16.597 22.9128 16.7365 23.0529C16.8759 23.1929 16.9543 23.3829 16.9543 23.5811V23.5828C16.9543 23.7809 16.8759 23.9709 16.7365 24.111C16.597 24.251 16.4078 24.3298 16.2106 24.3298H13.7894C13.5923 24.3298 13.4032 24.2511 13.2637 24.1112C13.1243 23.9712 13.0459 23.7814 13.0457 23.5834V23.5828ZM10.6229 9.453V8.98275C10.6228 8.88464 10.6421 8.78748 10.6794 8.69682C10.7168 8.60617 10.7716 8.5238 10.8406 8.45441C10.9097 8.38502 10.9917 8.32998 11.0819 8.29243C11.1722 8.25487 11.2689 8.23554 11.3666 8.23554H11.8356C12.1567 8.23554 12.4646 8.10746 12.6916 7.87947C12.9187 7.65147 13.0463 7.34223 13.0463 7.01977V6.55079C13.0463 6.35267 13.1247 6.16267 13.2642 6.02258C13.4036 5.88249 13.5928 5.80379 13.7901 5.80379H16.2106C16.4078 5.80379 16.597 5.88249 16.7365 6.02258C16.8759 6.16267 16.9543 6.35267 16.9543 6.55079V7.01977C16.9544 7.34223 17.0819 7.65147 17.309 7.87947C17.536 8.10746 17.8439 8.23554 18.165 8.23554H18.6332C18.7309 8.23554 18.8276 8.25487 18.9178 8.29243C19.0081 8.32998 19.0901 8.38502 19.1592 8.45441C19.2282 8.5238 19.283 8.60617 19.3204 8.69682C19.3577 8.78748 19.3769 8.88464 19.3769 8.98275V9.453C19.3769 9.7755 19.5045 10.0848 19.7315 10.3128C19.9586 10.5409 20.2665 10.669 20.5876 10.669H21.056C21.2533 10.669 21.4424 10.7477 21.5819 10.8878C21.7214 11.0279 21.7997 11.2179 21.7997 11.416V11.4175C21.7997 11.6156 21.7214 11.8056 21.5819 11.9457C21.4425 12.0859 21.2533 12.1646 21.056 12.1647H8.94378C8.74651 12.1646 8.55733 12.0859 8.41786 11.9457C8.27839 11.8056 8.20004 11.6156 8.20004 11.4175V11.416C8.20004 11.2179 8.2784 11.0279 8.41788 10.8878C8.55735 10.7477 8.74653 10.669 8.94378 10.669H9.41219C9.73317 10.669 10.041 10.541 10.268 10.3131C10.4951 10.0852 10.6227 9.77603 10.6229 9.45364V9.453Z"></path></svg>