<?xml version="1.0" encoding="utf-8"?>
<svg xmlns="http://www.w3.org/2000/svg" fill="none" height="73" viewBox="0 0 99 73" width="99">
<path d="M96.3503 36.9842C95.993 36.8448 95.6458 36.6767 95.2783 36.5701C92.6509 35.8014 90.0256 35.0306 87.3881 34.3009C87.0734 34.2148 86.6308 34.2619 86.3547 34.428C84.7324 35.4078 83.1365 36.4307 81.5426 37.4577C79.0493 39.0628 76.5864 40.7171 74.0647 42.2771C72.5398 43.2201 71.3196 42.4862 71.2769 40.7028C71.2729 40.4998 71.2566 40.2989 71.2444 40.0529C69.7338 40.2784 68.2659 40.6126 66.7877 40.6638C66.0933 40.6884 65.3076 40.2784 64.6984 39.8643C64.132 39.479 63.7401 38.8291 63.2406 38.2593C63.0924 38.5155 62.9239 38.7656 62.798 39.0341C61.6163 41.5924 59.529 42.5518 56.8652 42.357C55.3891 42.2484 53.8703 42.1439 52.4734 41.7031C51.4339 41.3751 50.5689 40.4978 49.6045 39.8992C49.2958 39.7065 48.8959 39.4585 48.5832 39.5118C46.5264 39.8623 44.5021 39.9299 42.4798 39.2883C42.2321 39.2104 41.8423 39.3744 41.5986 39.5446C39.1032 41.2767 34.9003 41.0143 33.4506 37.3593C33.1521 36.607 32.7846 35.8813 32.4111 35.0573C31.4202 36.1622 30.4334 37.1871 29.534 38.2839C27.4508 40.8258 25.0874 43.054 22.3951 44.9194C21.2946 45.682 20.6063 46.6209 20.2591 47.9841C19.1586 52.3094 17.2663 56.2883 14.8968 60.0683C13.3111 62.5979 11.9974 65.3038 10.5802 67.94C9.46147 70.0228 7.8473 71.5704 5.72148 72.5524C3.90021 73.3928 1.79266 73.0259 0.590663 71.6524C0.304377 71.3244 0.0993071 70.8386 0.0465168 70.3999C-0.221496 68.2147 0.714518 66.3493 1.67693 64.4921C4.24335 59.5313 7.82091 55.3658 11.701 51.4382C13.7781 49.337 15.8917 47.2727 17.983 45.1859C18.1719 44.9994 18.4074 44.7944 18.4724 44.5566C18.8561 43.1504 19.1952 41.7318 19.6135 40.0693C17.7881 41.5227 15.8593 41.3218 13.9771 41.0861C11.9304 40.8319 11.1162 39.8151 11.0939 37.714C11.0655 34.8154 11.0817 31.9168 11.0777 29.0182C11.0777 28.1655 11.0736 27.3127 11.0736 26.4599C11.0736 25.1172 11.5101 24.4449 12.3893 24.4223C13.2847 24.3998 13.7375 25.0619 13.7375 26.4066C13.7375 30.0227 13.772 33.6408 13.7091 37.2548C13.6928 38.2347 14.0827 38.4417 14.9253 38.536C16.6755 38.7328 17.9303 38.2326 18.8947 36.6193C20.3891 34.1225 21.8388 31.6401 22.3261 28.7128C22.4662 27.8662 22.9636 27.4439 23.8001 27.4992C24.5636 27.5505 25.1199 28.2351 24.9514 29.1228C24.525 31.3633 24.0215 33.5916 23.4935 35.8117C23.0205 37.7919 22.4723 39.7516 22.1251 41.8446C23.0672 41.0287 24.0905 40.2887 24.9372 39.3826C26.8376 37.347 28.6426 35.2213 30.5005 33.1447C31.0121 32.5707 31.2618 31.9947 30.9654 31.2055C30.7015 30.5044 30.8294 29.8197 31.3207 29.2089C31.4527 29.0449 31.5136 28.7743 31.5055 28.5549C31.3634 24.2378 32.4496 20.1093 33.4628 15.9828C34.0679 13.5167 34.7785 11.063 35.6698 8.69123C36.084 7.58427 37.0566 6.69665 37.7368 5.68399C38.0982 5.14487 38.352 4.53194 38.7073 3.98666C38.9388 3.63203 39.2129 3.14414 39.556 3.0519C40.8677 2.69521 42.2057 2.38157 43.5539 2.22168C46.3741 1.88959 48.0837 3.65047 49.4887 5.74959C50.3273 7.00209 50.5567 8.46573 50.7029 10.0011C51.1435 14.6421 50.2867 19.0884 49.0867 23.5121C48.3131 26.3656 47.6857 29.2704 46.7518 32.0685C46.2117 33.6859 45.1924 35.1393 44.2544 36.9186C45.7081 36.8407 47.0989 36.7669 48.5344 36.689C48.5954 31.3449 50.2197 26.4681 51.1374 21.4622C51.6958 18.416 52.0166 15.3227 52.6724 12.2991C53.2592 9.59319 53.8581 6.8955 55.1414 4.34745C56.5241 1.60056 58.8225 0.544847 61.4782 0.0590166C63.4396 -0.299719 64.8568 1.03683 66.0243 2.44717C68.1887 5.05877 68.9399 8.21974 69.2689 11.5222C69.742 16.2821 68.3795 20.8452 67.8131 25.4924C67.4192 28.721 66.5177 31.8205 65.1715 34.7846C64.8467 35.5021 65.5878 36.9412 66.3532 37.0334C67.5613 37.1789 68.7775 37.2896 69.9917 37.3224C70.749 37.3429 71.2363 37.0744 71.3358 36.0925C71.5957 33.485 72.0241 30.8939 72.3876 28.2987C72.4241 28.0404 72.4749 27.7842 72.5419 27.3947C71.7378 27.6981 71.0576 27.9707 70.3653 28.2085C69.3988 28.5406 68.7125 28.2618 68.4527 27.4664C68.1928 26.6711 68.5582 26.0438 69.4983 25.6748C69.813 25.5518 70.1176 25.3571 70.4424 25.3099C73.0007 24.9368 74.0992 23.2887 74.6474 20.8759C75.1124 18.824 75.9956 16.8725 76.5844 14.8451C76.9032 13.7463 77.0351 12.582 77.1671 11.4381C77.2727 10.5259 77.7174 9.95397 78.5011 9.95807C79.2767 9.96217 79.9142 10.5587 79.7985 11.4484C79.5792 13.1272 79.3092 14.8143 78.8645 16.442C78.3041 18.4939 77.5488 20.4926 76.8707 22.5343C78.4219 22.0936 79.8716 21.6775 81.3254 21.2757C81.6177 21.1957 81.9223 21.1445 82.2228 21.126C83.0167 21.0789 83.5507 21.4643 83.6664 22.2494C83.7903 23.0899 83.3334 23.5511 82.5335 23.7991C80.5071 24.4264 78.4848 25.0721 76.491 25.7957C76.1012 25.9372 75.6504 26.4292 75.5712 26.8289C74.9865 29.7972 74.4098 32.7737 74.0119 35.7727C73.8901 36.7013 74.3347 37.7058 74.5093 38.6262C77.4432 36.7977 80.4401 34.9302 83.4613 33.0463C81.8918 31.7774 82.038 30.9964 83.6075 29.9263C86.0927 28.229 88.4663 26.3656 90.8743 24.5596C91.4977 24.0923 92.0743 23.5613 92.6834 23.0735C93.2133 22.6512 93.792 22.0936 94.4884 22.5671C95.2234 23.0653 96.0092 23.5962 96.0518 24.6744C96.1534 27.2348 94.8275 28.9895 92.8925 30.3814C91.989 31.0312 91.0307 31.6052 89.8693 32.3616C91.3048 32.747 92.519 33.0627 93.727 33.4009C94.929 33.7371 96.1452 34.0426 97.3208 34.4567C98.4233 34.8441 98.9025 35.7153 98.9858 36.894C99.0731 38.1383 98.7766 39.2412 97.597 39.686C95.6153 40.4322 93.5971 41.1619 91.5301 41.5719C88.7201 42.1295 85.8491 42.3878 83.0025 42.7568C82.2066 42.8593 81.5406 42.3488 81.4837 41.6027C81.4167 40.7499 81.8391 40.2169 82.6736 40.1103C84.7182 39.8479 86.7831 39.7126 88.8114 39.3539C90.9698 38.9726 93.0956 38.4089 95.2255 37.8841C95.6376 37.7816 96.0031 37.4905 96.3889 37.2855L96.3503 36.9904V36.9842ZM63.0031 32.0623C63.1005 32.0705 63.1959 32.0788 63.2934 32.0869C63.7279 30.4962 64.2578 28.9239 64.5766 27.3106C65.0558 24.8774 65.3563 22.4093 65.7867 19.9678C66.4629 16.1365 66.9725 12.3134 65.8416 8.47393C65.2568 6.48961 64.5421 4.59139 62.796 3.32249C62.5584 3.15029 62.2011 3.0437 61.9107 3.06625C61.4173 3.10725 60.9402 3.31224 60.4468 3.37989C59.1514 3.56028 58.2824 4.52989 58.3595 5.86439C58.522 8.64818 58.721 11.432 58.9159 14.2137C59.0458 16.0791 58.9321 18.0143 59.389 19.7977C60.4448 23.9262 61.7808 27.981 63.0031 32.0644V32.0623ZM55.8967 11.9731C55.8276 11.9465 55.7586 11.9198 55.6896 11.8932C55.5718 12.4057 55.4358 12.9161 55.3363 13.4347C54.3069 18.8814 53.2511 24.3219 52.2765 29.7787C51.8887 31.9496 51.5902 34.1471 51.4298 36.3467C51.308 38.0153 51.8338 38.6692 53.4907 38.9685C55.0317 39.2473 56.6215 39.2699 58.191 39.3601C58.5342 39.3806 59.0539 39.3232 59.2123 39.0977C59.994 37.9948 60.8204 36.8817 61.328 35.6477C61.5107 35.2028 60.8447 34.4075 60.5828 33.7658C60.4427 33.4194 60.3371 33.0607 60.2234 32.704C59.6082 30.7627 58.9402 28.8378 58.3981 26.8761C57.659 24.1989 56.857 21.5237 56.3799 18.7953C55.9901 16.5629 56.0388 14.2527 55.8946 11.9772L55.8967 11.9731ZM38.819 9.15656C38.7154 9.13401 38.6139 9.11351 38.5104 9.09096C37.9946 10.4357 37.3063 11.7415 36.9937 13.1313C36.0759 17.2086 35.1196 21.2921 34.5369 25.4227C34.0476 28.8952 34.1288 32.4108 35.8404 35.6866C36.8597 37.6381 36.9713 37.8001 39.0748 37.5787C39.9134 37.4905 40.9875 36.3795 40.8981 35.703C40.7276 34.43 40.5022 33.1591 40.4068 31.8799C40.0616 27.1671 39.753 22.4523 39.4504 17.7355C39.286 15.1546 39.1682 12.5697 39.0139 9.98677C38.9977 9.70594 38.884 9.43125 38.817 9.15451L38.819 9.15656ZM43.2717 32.3801C43.3508 32.4047 43.4321 32.4272 43.5112 32.4518C43.763 31.8758 44.0919 31.3203 44.2544 30.7197C45.03 27.8375 45.8036 24.9532 46.4919 22.0485C47.2492 18.8465 48.2421 15.6753 47.9274 12.3073C47.7649 10.5669 48.0573 8.74657 47.0076 7.16609C46.165 5.89924 45.166 4.91732 43.495 5.03622C42.5103 5.10592 41.5702 5.67169 41.5905 6.22927C41.6169 6.90985 41.6494 7.58837 41.694 8.26689C42.0006 12.9817 42.3133 17.6986 42.6219 22.4134C42.8392 25.7343 43.0544 29.0572 43.2717 32.378V32.3801ZM16.842 50.4235L16.4866 50.1734C16.0724 50.6531 15.6826 51.1553 15.24 51.6083C11.3761 55.5667 7.47777 59.5026 4.77531 64.4203C3.99361 65.8409 3.30531 67.3312 2.7571 68.8563C2.36117 69.9551 2.88095 70.4409 4.04234 70.2687C4.39969 70.2154 4.75704 70.0617 5.07581 69.8813C6.36511 69.1495 7.41077 68.1696 8.14577 66.8474C10.2736 63.0182 12.4583 59.2217 14.5456 55.3699C15.4105 53.7751 16.0826 52.0737 16.842 50.4214V50.4235ZM92.9819 26.6998C92.9108 26.6178 92.8377 26.5358 92.7667 26.4558C92.0378 27.0892 91.3068 27.7247 90.5779 28.3581C90.6611 28.4524 90.7444 28.5488 90.8276 28.6431C91.5464 27.9953 92.2631 27.3475 92.9819 26.6998Z" fill="black"/>
</svg>